<svg xmlns="http://www.w3.org/2000/svg" version="1.1" xmlns:xlink="http://www.w3.org/1999/xlink" xmlns:svgjs="http://svgjs.com/svgjs" width="512.000000pt" height="512.000000pt"><svg version="1.0" xmlns="http://www.w3.org/2000/svg" width="512.000000pt" height="512.000000pt" viewBox="0 0 512.000000 512.000000" preserveAspectRatio="xMidYMid meet">
<metadata>
Created by potrace 1.14, written by Peter Selinger 2001-2017
</metadata>
<g transform="translate(0.000000,512.000000) scale(0.100000,-0.100000)" fill="#000000" stroke="none">
<path d="M2300 3795 l0 -1145 245 0 245 0 0 1145 0 1145 -245 0 -245 0 0
-1145z"></path>
<path d="M786 4878 c-11 -49 -158 -1340 -153 -1344 15 -15 252 -145 362 -199
347 -169 722 -283 1053 -321 l62 -7 0 890 0 890 -122 7 c-328 18 -786 59
-1033 91 -152 20 -164 20 -169 -7z"></path>
<path d="M4150 4884 c-227 -36 -661 -77 -988 -93 -95 -5 -175 -11 -177 -13 -3
-3 -4 -396 -3 -875 l3 -871 160 33 c299 60 631 167 964 310 248 107 351 161
351 187 0 24 -167 1282 -175 1316 -6 25 -12 26 -135 6z"></path>
<path d="M4148 3190 c-298 -132 -719 -262 -1040 -321 l-128 -23 0 -98 0 -98
185 0 185 0 0 -715 0 -715 -184 0 -183 0 -5 -117 c-11 -241 -108 -417 -275
-496 -61 -29 -77 -32 -158 -32 -82 0 -97 3 -157 33 -121 59 -218 191 -252 343
-8 35 -18 110 -22 167 l-7 102 -183 0 -184 0 0 715 0 715 185 0 185 0 0 85 c0
97 14 86 -135 105 -316 39 -694 153 -1029 310 l-109 50 6 -112 c4 -62 12 -301
18 -531 15 -597 -1 -1203 -52 -1860 -11 -148 -18 -271 -16 -274 18 -17 447
-112 692 -152 386 -63 554 -76 1050 -76 399 0 473 3 655 23 356 39 685 96 975
168 77 20 141 37 142 38 2 1 -2 61 -7 132 -19 254 -40 675 -51 1039 -11 358
-7 1267 8 1523 5 92 3 112 -8 111 -8 0 -53 -18 -101 -39z"></path>
<path d="M1932 1933 l3 -528 613 -3 612 -2 0 530 0 530 -615 0 -615 0 2 -527z
m1028 12 l0 -335 -410 0 -410 0 0 335 0 335 410 0 410 0 0 -335z"></path>
<path d="M2322 1943 l3 -148 223 -3 222 -2 0 150 0 150 -225 0 -226 0 3 -147z"></path>
<path d="M2303 1113 c7 -119 22 -180 62 -249 75 -128 249 -142 344 -27 53 64
73 133 79 266 l4 117 -247 0 -248 0 6 -107z"></path>
</g>
</svg><style>@media (prefers-color-scheme: light) { :root { filter: none; } }
@media (prefers-color-scheme: dark) { :root { filter: invert(100%); } }
</style></svg>